PathFileType	4	(X/Y/Z)	C:/Users/beibeiliu/ov580/test_trc/User2\sequence.9_training_dense_left.trc
DataRate	CameraRate	NumFrames	NumMarkers	Units	OrigDataRate	OrigDataStartFrame	OrigNumFrames
120	120	9	19	mm	120	1	80
Frame#	Time	ThumbCMC			ThumbMCP			ThumbIP			ThumbTip			IndexMCP			IndexPIP			IndexTip			MiddleMCP			MiddlePIP			MiddleTip			RingMCP			RingPIP			RingTip			PinkyMCP			PinkyPIP			PinkyTip			BackHand1			BackHand2			BackHand3	
		X0	Y0	Z0	X1	Y1	Z1	X2	Y2	Z2	X3	Y3	Z3	X4	Y4	Z4	X5	Y5	Z5	X6	Y6	Z6	X7	Y7	Z7	X8	Y8	Z8	X9	Y9	Z9	X10	Y10	Z10	X11	Y11	Z11	X12	Y12	Z12	X13	Y13	Z13	X14	Y14	Z14	X15	Y15	Z15	X16	Y16	Z16	X17	Y17	Z17	X18	Y18	Z18	
0	0	-138.688	-23.8777	-1.96408	-118.369	-29.2959	-21.9486	-91.5543	-28.1923	-44.1821	-71.9204	-30.8481	-61.3838	-163.861	-6.218	-81.4512	-157.348	-2.67525	-107.618	-154.216	3.44629	-139.466	-191.524	-5.40432	-86.4595	-195.92	-0.0729474	-117.929	-201.094	1.98089	-149.601	-215.728	-19.5113	-82.5906	-223.546	-18.8327	-104.687	-230.964	-19.3331	-133.084	-238.06	-42.5858	-63.177	-248.695	-47.6966	-81.8888	-260.914	-46.1808	-105.073	-210.17	-16.9202	-28.0976	-209.013	-15.0084	9.95934	-176.687	-5.52401	-12.9647	
1	0.00833333	-140.828	-24.4265	-5.28912	-117.988	-28.039	-23.7536	-96.4451	-30.2731	-46.8367	-72.9625	-32.6441	-62.4883	-165.423	-5.46332	-83.8893	-160.247	-0.700845	-112.796	-157.44	2.98051	-141.935	-192.263	-4.54081	-90.0234	-196.136	-0.352566	-116.496	-202.978	2.42231	-150.279	-220.633	-20.455	-80.6777	-223.676	-19.0979	-106.347	-232.832	-18.297	-138.867	-235.142	-42.3038	-61.3042	-253.042	-47.7736	-86.3432	-264.411	-46.4183	-102.357	-212.657	-18.7287	-25.2965	-209.266	-13.4428	6.22792	-176.619	-5.99437	-15.9115	
2	0.0166667	-141.413	-25.636	-3.61049	-120.586	-29.7834	-21.742	-92.7533	-29.6668	-48.8302	-76.734	-34.2925	-59.9481	-160.82	-4.38928	-86.9015	-161.039	-1.72974	-110.847	-154.46	2.83574	-137.782	-194.9	-5.80829	-86.7241	-197.039	-0.720047	-117.737	-200.466	3.21676	-148.528	-215.887	-19.7085	-79.6647	-225.71	-19.3655	-110.644	-234.052	-19.541	-137.848	-237.86	-42.2364	-61.8845	-252.507	-48.8841	-84.3197	-263.47	-48.7937	-103.893	-213.982	-18.5193	-25.8965	-208.811	-15.2895	5.67064	-178.401	-7.19018	-13.165	
3	0.025	-138.752	-23.2829	-7.91605	-121.057	-28.8863	-24.8556	-95.1582	-29.3112	-47.2791	-76.4804	-33.0783	-58.1735	-163.756	-4.924	-86.4116	-157.068	0.623709	-113.338	-159.873	1.58262	-137.011	-192.607	-5.55371	-85.2749	-197.66	0.21617	-119.475	-203.176	3.06834	-149.009	-216.378	-18.8639	-81.9712	-226.421	-19.167	-108.837	-230.888	-18.6549	-133.333	-233.157	-41.4879	-62.3402	-248.963	-46.0027	-85.5515	-264.142	-46.3667	-102.821	-212.476	-18.9463	-28.8773	-212.975	-15.6897	4.9477	-177.597	-5.9192	-16.0258	
4	0.0333333	-142.6	-25.1349	-4.34841	-119.455	-27.8097	-26.3746	-92.8335	-28.0816	-45.1832	-73.3585	-31.0002	-58.5972	-161.014	-4.23346	-82.7381	-158.518	-0.39444	-108.331	-155.106	4.01468	-135.561	-190.919	-2.05273	-90.1648	-194.714	1.29279	-121.654	-200.251	4.45461	-147.266	-220.2	-20.7914	-80.1668	-225.491	-17.6369	-110.112	-233.488	-18.9524	-137.254	-238.586	-43.1294	-62.1809	-247.034	-45.8748	-84.8353	-264.268	-45.9615	-102.954	-213.28	-17.4458	-27.8391	-207.45	-13.466	3.43367	-177.885	-6.84784	-15.91	
5	0.0416667	-142.354	-24.1216	-8.4687	-121.049	-27.6283	-25.8082	-94.8699	-27.1997	-49.3645	-72.9004	-30.0437	-59.1923	-160.76	-4.23168	-81.4624	-161.502	-0.196521	-112.646	-156.201	3.84435	-135.823	-195.093	-4.16154	-89.242	-195.965	1.43672	-118.522	-203.93	3.85629	-148.17	-221.259	-20.6135	-79.8675	-228.876	-18.7555	-109.002	-234.894	-19.3271	-133.695	-237.138	-41.251	-62.371	-246.843	-45.9698	-82.751	-264.127	-48.1676	-102.475	-209.974	-17.0066	-24.4617	-209.621	-14.9094	5.79411	-174.917	-5.92623	-14.651	
6	0.05	-140.32	-22.9403	-8.0859	-118.628	-27.0319	-25.9645	-96.3869	-30.2334	-45.3727	-75.7162	-31.4693	-59.0467	-164.849	-3.94727	-86.8959	-158.359	-0.741675	-108.604	-158.515	3.23054	-136.519	-196.519	-4.31175	-89.8443	-196.088	0.644054	-116.505	-202.888	5.52862	-149.859	-216.822	-19.6302	-78.7543	-227.513	-19.1443	-106.47	-233.347	-16.9104	-137.78	-239.454	-42.556	-61.63	-252.398	-46.8305	-86.1933	-265.618	-47.0266	-103.504	-208.851	-18.7876	-24.4842	-211.294	-15.2091	7.51035	-178.78	-5.0898	-13.1382	
7	0.0583333	-141.03	-23.2941	-2.92522	-119.979	-28.2629	-22.6705	-92.914	-27.2073	-47.367	-73.7431	-30.9364	-58.7545	-164.029	-3.55278	-85.1171	-157.624	0.188625	-112.972	-159.455	3.23809	-136.436	-194.711	-4.30881	-89.5199	-197.097	-0.0654273	-117.396	-199.389	5.26206	-152.866	-217.097	-19.3633	-80.0581	-229.635	-20.4525	-106.615	-234.291	-19.488	-134.001	-240.49	-41.2041	-63.8797	-249.434	-45.7943	-83.7656	-266.009	-45.8261	-106.7	-214.517	-19.8023	-23.9012	-211.737	-15.2869	5.66405	-176.529	-3.69503	-14.0408	
8	0.0666667	-141.998	-24.1688	-5.74331	-121.878	-27.0768	-26.7322	-100.216	-27.3483	-50.0409	-80.7105	-28.671	-70.2537	-164.043	-4.33406	-82.9084	-159.633	0.254755	-113.757	-155.086	4.09584	-140.979	-192.974	-5.12571	-86.7924	-198.453	-0.800722	-121.363	-199.73	2.66731	-150.929	-218.255	-19.6797	-82.2626	-226.938	-20.1909	-107.242	-229.107	-18.0725	-138.189	-237.258	-40.4006	-60.9829	-246.256	-42.7943	-84.8238	-261.488	-41.4224	-107.434	-211.945	-19.4325	-26.1627	-212.139	-16.3227	8.29934	-177.763	-6.68758	-13.0481	
